# xmcd
#
# Track frame offsets:
#	150
#	27282
#	48422
#	72550
#	100212
#	122690
#	149615
#	167465
#	192627
#	214902
#	232065
#
# Disc length: 3584
#
# Revision: 1
# Processed by: cddbd v1.5.1PL0 Copyright (c) Steve Scherf et al.
# Submitted via: CDex 1.51
# Normalized: r0:TDELIM( - )
#
DISCID=a90dfe0b
DTITLE=Various Artist - Encounters
DYEAR=1999
DGENRE=Jazz
TTITLE0=Miles Davis - My Funny Valentine
TTITLE1=Chet Baker - It Never Entered My Mind
TTITLE2=Niels-Henning Orsted Pedersen - Sometime Ago
TTITLE3=Sonny Rollins - My Reverie
TTITLE4=Bill Evans - Some Other Time
TTITLE5=Benny Golson - Yesterdays
TTITLE6=Richard "Blue" Mitchell - Park Avenue Petite
TTITLE7=Wynton Kelly - Don't Explain
TTITLE8=John Coltrane - Theme for Ernie
TTITLE9=Wes Montgomery - Days of Wine and Roses
TTITLE10=Miles Davis - If I Were a Bell
EXTD=YEAR: 1999
EXTT0=
EXTT1=
EXTT2=
EXTT3=
EXTT4=
EXTT5=
EXTT6=
EXTT7=
EXTT8=
EXTT9=
EXTT10=
PLAYORDER=
